<?xml version="1.0" encoding="UTF-8" standalone="no"?>
<svg
   height="48"
   viewBox="0 -960 960 960"
   width="48"
   version="1.1"
   id="svg1"
   sodipodi:docname="service-radar-logo.svg"
   inkscape:version="1.3 (0e150ed6c4, 2023-07-21)"
   xmlns:inkscape="http://www.inkscape.org/namespaces/inkscape"
   xmlns:sodipodi="http://sodipodi.sourceforge.net/DTD/sodipodi-0.dtd"
   xmlns="http://www.w3.org/2000/svg"
   xmlns:svg="http://www.w3.org/2000/svg">
  <defs
     id="defs1" />
  <sodipodi:namedview
     id="namedview1"
     pagecolor="#505050"
     bordercolor="#ffffff"
     borderopacity="1"
     inkscape:showpageshadow="0"
     inkscape:pageopacity="0"
     inkscape:pagecheckerboard="1"
     inkscape:deskcolor="#d1d1d1"
     inkscape:zoom="17.3125"
     inkscape:cx="24"
     inkscape:cy="24"
     inkscape:window-width="1920"
     inkscape:window-height="1027"
     inkscape:window-x="1912"
     inkscape:window-y="-8"
     inkscape:window-maximized="1"
     inkscape:current-layer="svg1" />
  <path
     id="path1"
     style="fill:#00be00;fill-opacity:1;stroke-width:1.06368"
     d="m 478.75351,-952.79544 c -64.29771,0 -125.13279,12.40106 -182.48682,37.22865 -57.35332,24.82757 -107.67073,58.86161 -150.99206,102.0879 -43.32133,43.22632 -77.186079,93.57392 -101.547771,151.03361 -24.360984,57.4597 -36.5222978,118.61293 -36.5222978,183.44248 0,64.82882 12.2239918,125.83432 36.6884998,183.06851 24.464509,57.2342 58.333219,107.46384 101.589309,150.65966 43.25609,43.19582 93.40962,76.993363 150.49347,101.423123 57.08385,24.429052 118.06144,36.6469458 182.90231,36.6469458 64.82245,0 126.06417,-12.1784758 183.77487,-36.6054068 57.71073,-24.427623 108.11461,-58.296352 151.19981,-101.589312 18.3723,-18.4609 34.9841,-38.26935 50.02599,-59.25004 a 72.49889,72.49889 0 0 0 66.14731,-72.0474 72.49889,72.49889 0 0 0 -8.47616,-34.02931 c 20.75063,-52.89133 31.24547,-108.89447 31.24547,-168.06903 0,-44.39401 -5.98728,-87.1344 -17.65867,-128.3474 a 72.49889,72.49889 0 0 0 10.63676,-37.60259 72.49889,72.49889 0 0 0 -56.54931,-70.67626 c -20.87667,-36.34235 -45.89153,-69.2706 -75.28829,-98.63927 -43.02704,-42.98663 -93.46369,-76.83903 -151.28291,-101.58931 -57.8185,-24.75029 -119.10684,-37.14555 -183.89951,-37.14555 z m 0.37394,85.09404 c 107.57649,0 199.24666,37.76136 274.97672,113.30636 22.54154,22.48664 41.67306,46.43252 57.50496,71.75655 a 72.49889,72.49889 0 0 0 -10.80294,37.89344 72.49889,72.49889 0 0 0 56.1338,70.42695 c 7.15158,30.03252 10.76141,61.55213 10.76141,94.60894 0,46.57284 -7.78691,90.49834 -23.14325,131.83759 a 72.49889,72.49889 0 0 0 -59.49934,71.17485 72.49889,72.49889 0 0 0 5.60922,27.71374 c -5.30136,7.01984 -10.78413,13.92497 -16.57838,20.56715 l -68.05861,-68.10016 c 19.61913,-25.54733 35.34091,-53.76745 47.15904,-84.67854 11.33924,-29.65738 17.07388,-61.06008 17.53403,-94.11034 a 72.49889,72.49889 0 0 0 20.52562,-50.31684 72.49889,72.49889 0 0 0 -41.21743,-65.39942 c -14.18081,-34.873 -35.57755,-66.61027 -64.23601,-95.1491 -56.72933,-56.49317 -125.58013,-84.72009 -206.54418,-84.72009 -80.96478,0 -149.36146,28.36474 -205.25612,85.09403 -55.89539,56.72933 -83.84755,125.58013 -83.84755,206.54418 0,80.96478 27.95754,149.36146 83.88909,205.25612 55.93154,55.89539 124.40579,83.84755 205.42232,83.84755 35.72671,0 68.78133,-5.30208 99.13788,-15.95513 30.35657,-10.65235 58.27781,-26.25263 83.80601,-46.7851 l 70.21919,68.05861 c -34.7467,30.49201 -73.53087,53.53836 -116.33952,69.13891 -42.80863,15.60055 -88.49272,23.392536 -137.07285,23.39255 -107.26589,0 -198.59934,-37.55835 -273.93799,-112.72468 -75.33935,-75.16631 -112.97397,-166.5277 -112.97397,-274.10418 0,-107.57649 37.55835,-199.24665 112.72468,-274.97673 75.16631,-75.73007 166.52768,-113.59721 274.10417,-113.59721 z m 0.62325,182.94387 c 57.36964,0 105.85724,19.87619 145.50748,59.58244 16.04848,16.07058 28.71444,33.67817 38.2674,52.68518 a 72.49889,72.49889 0 0 0 -17.24319,46.8682 72.49889,72.49889 0 0 0 37.8519,63.48812 c -1.25457,17.46603 -4.4497,33.78814 -9.63956,48.98726 -6.8444,20.04458 -16.53636,38.72019 -29.08489,56.00915 l -72.33823,-69.1389 c 4.9638,-7.09117 8.69498,-15.3367 11.17689,-24.76369 2.48192,-9.427 3.69794,-19.06113 3.69794,-28.83558 0,-29.72758 -10.37178,-55.15778 -31.16236,-76.32703 -20.79059,-21.16924 -46.36001,-31.74406 -76.70097,-31.74406 -30.34096,0 -55.94032,10.37178 -76.78408,31.16236 -20.84376,20.79059 -31.28701,46.36001 -31.28701,76.70097 0,30.34096 10.32855,55.94032 30.95462,76.78408 20.62606,20.84376 45.95999,31.28701 75.99462,31.28701 10.26162,0 19.70915,-1.07198 28.33699,-3.19933 8.6271,-2.12735 16.3713,-4.60096 23.22633,-7.43743 l 71.25796,68.05862 c -17.01879,13.47321 -35.99554,23.40918 -56.96481,29.79123 -20.96998,6.38204 -42.90225,9.55645 -65.77337,9.55645 -56.94984,0 -105.17473,-19.72419 -144.63493,-59.2085 -39.45948,-39.4843 -59.16696,-87.92938 -59.16696,-145.29972 0,-57.36964 19.7242,-105.85724 59.20851,-145.50748 39.4843,-39.65095 87.92938,-59.49935 145.29972,-59.49935 z" />
</svg>
