<?xml version="1.0" encoding="utf-8"?>
<!-- Generator: Adobe Illustrator 24.3.0, SVG Export Plug-In . SVG Version: 6.00 Build 0)  -->
<svg version="1.1" id="Layer_1" xmlns="http://www.w3.org/2000/svg" xmlns:xlink="http://www.w3.org/1999/xlink" x="0px" y="0px"
	 viewBox="0 0 512 512" style="enable-background:new 0 0 512 512;" xml:space="preserve">
<style type="text/css">
	.st0{fill:#8C96A1;}
	.st1{fill:url(#XMLID_3_);}
	.st2{fill:#0C4C75;}
</style>
<g id="XMLID_1_">
	<path id="XMLID_5_" class="st0" d="M50.42,251.09L0.47,362.92h32.69l9.68-23.71h50.23l9.68,23.71h32.55L85.22,251.09L50.42,251.09
		L50.42,251.09z M68.1,277.47l8.42,21.33l8.42,21.33H68.1H51.26l8.42-21.33L68.1,277.47L68.1,277.47z"/>
	<path id="XMLID_8_" class="st0" d="M292.46,251.09l-49.95,111.83h32.69l9.68-23.71h50.23l9.68,23.71h32.69L327.4,251.09
		L292.46,251.09L292.46,251.09z M310.28,277.47l8.42,21.33l8.42,21.33h-16.84h-16.84l8.42-21.33L310.28,277.47L310.28,277.47z"/>
	<polygon id="XMLID_9_" class="st0" points="386.05,250.67 423.09,250.67 446.8,286.45 471.92,250.67 508.54,250.67 464.48,304.97 
		511.35,363.34 474.31,363.34 447.37,325.31 420.99,363.34 381.42,363.34 429.13,305.53 	"/>
	<path id="XMLID_10_" class="st0" d="M229.18,203.38l-44.34,43.64l15.29,13.89l14.45-14.59h1.68v83.35
		c0,10.52-8.56,19.08-19.08,19.08h-15.15c-10.52,0-19.08-8.56-19.08-19.08v-8.84h-29.47v11.08c0,19.08,15.43,34.52,34.52,34.52
		h39.29c19.08,0,34.52-15.43,34.52-34.52v-85.45h1.12l16.84,14.45l13.33-13.89L229.18,203.38L229.18,203.38z"/>
	<path id="XMLID_11_" class="st0" d="M147.66,311.7L192,268.07l-15.29-13.89l-14.45,14.59h-1.68v-83.35
		c0-10.52,8.56-19.08,19.08-19.08h15.15c10.52,0,19.08,8.56,19.08,19.08v8.84h29.47v-11.08c0-19.08-15.43-34.52-34.52-34.52h-39.29
		c-19.08,0-34.52,15.43-34.52,34.52v85.45h-1.12l-16.84-14.45l-13.33,13.89L147.66,311.7L147.66,311.7z"/>
	
		<linearGradient id="XMLID_3_" gradientUnits="userSpaceOnUse" x1="5.8091" y1="506.0044" x2="7.1725" y2="506.0044" gradientTransform="matrix(0 160.5822 160.5822 0 -80999.3906 -788.7021)">
		<stop  offset="0" style="stop-color:#70B0DF"/>
		<stop  offset="0.5" style="stop-color:#1B81C5"/>
		<stop  offset="1" style="stop-color:#4A98CE"/>
	</linearGradient>
	<path id="XMLID_19_" class="st1" d="M169.97,145.85c-19.08,0-34.52,15.43-34.52,34.52v85.45h-1.12l-16.84-14.45l-13.33,13.89
		l43.64,43.64l44.34-43.64l-15.29-13.89l-14.45,14.59h-1.54v-83.35c0-10.52,8.56-19.08,19.08-19.08h15.15
		c10.52,0,19.08,8.56,19.08,19.08v8.84h29.47v-11.08c0-19.08-15.43-34.52-34.52-34.52L169.97,145.85L169.97,145.85z M229.18,200.72
		l-44.34,43.64l15.29,13.89l14.45-14.59h1.68V327c0,10.52-8.56,19.08-19.08,19.08h-15.15c-10.52,0-19.08-8.56-19.08-19.08v-8.84
		h-29.47v11.08c0,19.08,15.43,34.52,34.52,34.52h39.29c19.08,0,34.52-15.43,34.52-34.52v-85.45h1.12l16.84,14.45l13.33-13.89
		L229.18,200.72z M386.05,248l43.08,54.72l-47.85,57.81h39.57l26.38-38.02l26.94,38.02h37.18l-46.86-58.37L508.54,248h-36.48
		l-25.26,35.64L423.09,248L386.05,248L386.05,248z M50.42,248.42L0.47,360.25h32.69l9.68-23.71h50.23l9.68,23.71h32.55L85.22,248.42
		L50.42,248.42L50.42,248.42z M292.46,248.42l-49.95,111.83h32.69l9.68-23.71h50.23l9.68,23.71h32.69L327.4,248.42L292.46,248.42
		L292.46,248.42z M68.1,274.8l8.42,21.33l8.42,21.33H68.1H51.26l8.42-21.33L68.1,274.8z M310.28,274.8l8.42,21.33l8.42,21.33h-16.84
		h-16.84l8.42-21.33L310.28,274.8z"/>
	<path id="XMLID_27_" class="st2" d="M169.97,145.85v-0.28c-9.68,0-18.38,3.93-24.69,10.24c-6.31,6.31-10.24,15.01-10.24,24.69
		v85.17h-0.7l-16.98-14.59L103.6,265.4l44.2,44.2l44.9-44.2l-15.86-14.31l-14.59,14.73h-1.12v-83.06c0-10.38,8.42-18.8,18.8-18.8
		h15.15c10.38,0,18.8,8.42,18.8,18.8v9.26h30.17v-11.37c0-9.68-3.93-18.38-10.24-24.69s-15.01-10.24-24.69-10.24h-39.29v0.14v0.28
		h39.29c18.94,0,34.24,15.29,34.24,34.24v10.8h-28.9v-8.56c0-5.33-2.1-10.24-5.75-13.75c-3.51-3.51-8.42-5.75-13.75-5.75h-15.15
		c-5.33,0-10.24,2.1-13.75,5.75c-3.51,3.51-5.75,8.42-5.75,13.75v83.77h2.1l14.31-14.45l14.73,13.33l-43.92,43.22l-43.22-43.22
		l12.77-13.33l16.7,14.31h1.26h0.28v-85.87c0-18.94,15.29-34.24,34.24-34.24v-0.28H169.97z M229.18,200.72l-0.28-0.28l-44.62,43.92
		l15.86,14.31l14.59-14.73h1.12V327c0,10.38-8.42,18.8-18.8,18.8h-15.15c-10.38,0-18.8-8.42-18.8-18.8v-9.26h-30.17v11.37
		c0,9.68,3.93,18.38,10.24,24.69s15.01,10.24,24.69,10.24h39.29c9.68,0,18.38-3.93,24.69-10.24s10.24-15.01,10.24-24.69v-85.17h0.7
		l16.98,14.59l13.75-14.31l-44.2-44.2l-0.28,0.28L229.18,200.72L228.9,201l43.36,43.36l-12.77,13.33l-16.7-14.31h-1.26h-0.28v85.87
		c0,18.94-15.29,34.24-34.24,34.24h-39.29c-18.94,0-34.24-15.29-34.24-34.24v-10.8h28.9V327c0,5.33,2.1,10.24,5.75,13.75
		c3.51,3.51,8.42,5.75,13.75,5.75h15.15c5.33,0,10.24-2.1,13.75-5.75c3.51-3.51,5.75-8.42,5.75-13.75v-83.77h-2.1l-14.31,14.45
		l-14.73-13.33L229.6,201L229.18,200.72L228.9,201L229.18,200.72z M386.05,248l-0.28,0.28l42.94,54.58l-48.13,58.23h40.41
		l26.24-37.88l26.8,37.88h38.02l-47.15-58.79l44.34-54.58h-37.46l-24.98,35.36l-23.57-35.36h-38.02l0.42,0.56L386.05,248v0.28h36.9
		l23.85,35.92l25.26-35.92h35.64l-43.78,53.88l46.58,58.09h-36.2l-26.94-38.31l-26.52,38.31h-38.73l47.43-57.53l-43.36-55
		L386.05,248v0.28V248z M50.42,248.42l-0.28-0.14L0.05,360.53h33.39l9.68-23.71H92.8l9.68,23.71h33.39L85.5,248H50.14L50,248.14
		L50.42,248.42v0.28h34.66l49.81,111.13h-31.85l-9.68-23.71H42.56l-9.68,23.71H0.89l49.67-111.41H50.42v0.28V248.42z M292.46,248.42
		l-0.28-0.14l-50.09,112.25h33.39l9.68-23.71h49.67l9.68,23.71h33.53L327.68,248h-35.36l-0.14,0.14L292.46,248.42v0.28h34.66
		l49.81,111.13h-31.85l-9.68-23.71h-50.65l-9.68,23.71h-31.85l49.67-111.41H292.46v0.28V248.42z M68.1,274.8l-0.28,0.14l8.42,21.33
		l8.28,20.77H68.1H51.68l8.28-20.91l8.42-21.33H68.1l-0.28,0.14L68.1,274.8l-0.28-0.14l-8.42,21.33l-8.56,21.75h17.4h17.4
		l-8.7-21.75l-8.84-22.03l-0.28,0.84H68.1z M310.28,274.8l-0.28,0.14l8.42,21.33l8.28,20.77h-16.42h-16.42l8.28-20.91l8.42-21.33
		H310.28l-0.28,0.14L310.28,274.8l-0.28-0.14l-8.42,21.33l-8.56,21.75h17.4h17.4l-8.7-21.75l-8.84-22.03L310,274.8H310.28z"/>
</g>
</svg>
