<?xml version="1.0" encoding="UTF-8" standalone="no"?>
<svg
   height="48"
   viewBox="0 -960 960 960"
   width="48"
   version="1.1"
   id="svg1"
   sodipodi:docname="service-radar-logo.svg"
   inkscape:version="1.3 (0e150ed6c4, 2023-07-21)"
   xmlns:inkscape="http://www.inkscape.org/namespaces/inkscape"
   xmlns:sodipodi="http://sodipodi.sourceforge.net/DTD/sodipodi-0.dtd"
   xmlns="http://www.w3.org/2000/svg"
   xmlns:svg="http://www.w3.org/2000/svg">
  <defs
     id="defs1" />
  <sodipodi:namedview
     id="namedview1"
     pagecolor="#505050"
     bordercolor="#ffffff"
     borderopacity="1"
     inkscape:showpageshadow="0"
     inkscape:pageopacity="0"
     inkscape:pagecheckerboard="1"
     inkscape:deskcolor="#d1d1d1"
     inkscape:zoom="17.3125"
     inkscape:cx="24"
     inkscape:cy="24"
     inkscape:window-width="1920"
     inkscape:window-height="1027"
     inkscape:window-x="-8"
     inkscape:window-y="-8"
     inkscape:window-maximized="1"
     inkscape:current-layer="svg1" />
  <path
     id="path1"
     style="fill:#00be00;fill-opacity:1;stroke-width:0.751796"
     d="m 473.85063,-667.38267 c -45.445,0 -88.44265,8.76495 -128.97993,26.31285 -40.53678,17.54789 -76.10064,41.60282 -106.71974,72.15475 -30.6191,30.55195 -54.55438,66.13715 -71.77299,106.74911 -17.21811,40.61196 -25.81361,83.83448 -25.81361,129.65538 0,45.82039 8.6398,88.93849 25.93108,129.39107 17.29128,40.45258 41.22936,75.95441 71.80235,106.484802 30.57299,30.530389 66.02102,54.418161 106.36734,71.684884 40.34632,17.266222 83.44469,25.90170803 129.2736,25.90170803 45.81588,0 89.10094,-8.60762303 129.89031,-25.87234203 40.78939,-17.265219 76.41437,-41.203303 106.86658,-71.802353 12.98536,-13.047989 24.72642,-27.048409 35.35789,-41.877359 a 51.24152,51.24152 0 0 0 46.75228,-50.92241 51.24152,51.24152 0 0 0 -5.99087,-24.05159 c 14.66635,-37.38309 22.084,-76.96557 22.084,-118.78958 0,-31.37726 -4.23175,-61.58576 -12.48098,-90.71471 a 51.24152,51.24152 0 0 0 7.51796,-26.57715 51.24152,51.24152 0 0 0 -39.96851,-49.9533 c -14.75543,-25.68643 -32.43569,-48.9598 -53.21304,-69.71729 -30.4111,-30.38254 -66.05924,-54.30909 -106.92531,-71.80235 -40.86556,-17.49327 -84.18357,-26.25412 -129.97841,-26.25412 z m 0.2643,60.14365 c 76.03403,0 140.82563,26.68937 194.35091,80.08385 15.93214,15.89334 29.45412,32.81806 40.64395,50.71684 a 51.24152,51.24152 0 0 0 -7.63541,26.78272 51.24152,51.24152 0 0 0 39.67483,49.77709 c 5.05467,21.2267 7.60606,43.50446 7.60606,66.86869 0,32.91724 -5.50371,63.96336 -16.35743,93.18155 a 51.24152,51.24152 0 0 0 -42.05356,50.3057 51.24152,51.24152 0 0 0 3.96454,19.5878 c -3.74695,4.96156 -7.62212,9.84204 -11.71744,14.53667 l -48.10317,-48.13254 c 13.86661,-18.05661 24.97862,-38.00232 33.33156,-59.84998 8.01446,-20.96155 12.06765,-43.15668 12.39288,-66.51629 a 51.24152,51.24152 0 0 0 14.50731,-35.56346 51.24152,51.24152 0 0 0 -29.13208,-46.22368 c -10.02286,-24.6479 -25.14587,-47.0795 -45.4014,-67.25047 -40.09574,-39.92883 -88.75883,-59.87935 -145.98344,-59.87935 -57.22513,0 -105.56725,20.04793 -145.07306,60.14365 -39.50632,40.09574 -59.26264,88.75883 -59.26264,145.98344 0,57.22513 19.76012,105.56725 59.292,145.07306 39.53188,39.50632 87.92882,59.26264 145.19053,59.26264 25.25129,0 48.61398,-3.74746 70.0697,-11.27693 21.45573,-7.52898 41.1902,-18.55511 59.23328,-33.06726 l 49.63025,48.10317 c -24.55863,21.55146 -51.97091,37.840394 -82.22765,48.866717 -30.25673,11.026323 -62.54581,16.533624 -96.88178,16.533632 -75.8145,0 -140.36811,-26.54588 -193.61674,-79.672719 -53.24913,-53.12683 -79.84892,-117.70018 -79.84892,-193.73421 0,-76.03403 26.54588,-140.82562 79.67272,-194.35091 53.12683,-53.52529 117.70017,-80.28942 193.7342,-80.28942 z m 0.44051,129.30297 c 40.54831,0 74.81888,14.0483 102.84329,42.1123 11.34291,11.35853 20.29509,23.80341 27.04703,37.23738 a 51.24152,51.24152 0 0 0 -12.18732,33.12599 51.24152,51.24152 0 0 0 26.75336,44.8728 c -0.88672,12.34482 -3.14501,23.88113 -6.81315,34.62372 -4.83756,14.16732 -11.68774,27.36706 -20.55692,39.58673 l -51.12797,-48.86671 c 3.50837,-5.01197 6.14553,-10.83983 7.89972,-17.50274 1.7542,-6.66291 2.61367,-13.47222 2.61367,-20.38071 0,-21.01117 -7.33068,-38.98499 -22.02526,-53.94721 -14.69459,-14.96222 -32.76681,-22.4364 -54.21151,-22.4364 -21.4447,0 -39.53808,7.33068 -54.27025,22.02526 -14.73217,14.69459 -22.11336,32.76681 -22.11336,54.21151 0,21.4447 7.30012,39.53808 21.87843,54.27025 14.5783,14.73217 32.48408,22.11336 53.71227,22.11336 7.25281,0 13.93024,-0.75767 20.02831,-2.26126 6.09755,-1.50359 11.57108,-3.25191 16.41615,-5.2567 l 50.36444,48.10318 c -12.02872,9.52273 -25.4413,16.54538 -40.26218,21.05615 -14.82138,4.51077 -30.3229,6.75441 -46.48799,6.75441 -40.2516,0 -74.33649,-13.94087 -102.22658,-41.848 -27.88958,-27.90712 -41.81864,-62.14764 -41.81864,-102.69645 0,-40.54831 13.94088,-74.81888 41.84801,-102.84329 27.90712,-28.02491 62.14764,-42.05357 102.69645,-42.05357 z" />
</svg>
